<svg width="172" height="40" viewBox="0 0 172 40" fill="none" xmlns="http://www.w3.org/2000/svg">
<path d="M57.3025 3.94476C57.5877 4.59431 57.7303 5.3706 57.7303 6.24194C57.7303 7.11328 57.556 7.9371 57.2233 8.6817C56.8906 9.4263 56.3678 9.98079 55.6866 10.3293H54.7994C54.7994 8.88765 54.3241 7.76283 53.3577 6.9707C52.3913 6.16273 50.9338 5.76666 48.9535 5.76666V27.8829C48.9535 28.279 49.0169 28.6434 49.1594 28.9444C49.2862 29.2454 49.4763 29.5622 49.6981 29.8791C49.9199 30.1959 50.0308 30.4336 50.0308 30.5603C50.0308 30.687 49.9832 30.8138 49.904 30.9247C49.8248 31.0356 49.7139 31.0831 49.5872 31.0831H39.844C39.7173 31.0831 39.6064 31.0356 39.5271 30.9247C39.4479 30.8138 39.4004 30.7029 39.4004 30.5603C39.4004 30.4336 39.5113 30.1959 39.7173 29.8791C39.9232 29.5622 40.1133 29.2454 40.2559 28.9602C40.3985 28.6592 40.4777 28.3107 40.4777 27.8829L40.5252 5.76666C38.5291 5.76666 37.0082 6.16273 35.9942 6.9707C34.9803 7.77867 34.4734 8.88765 34.4734 10.3293H33.4753C32.8574 10.0125 32.3821 9.45798 32.0494 8.66586C31.7167 7.87373 31.5425 7.04991 31.5425 6.16273C31.5425 5.27554 31.7009 4.53094 32.0019 3.89724C32.3029 3.26353 32.7148 2.96252 33.2218 2.96252C33.9506 2.96252 35.313 3.10511 37.3092 3.40612C40.3826 3.86555 42.8066 4.08735 44.5651 4.08735C46.0384 4.08735 47.4643 4.00813 48.8267 3.86555C50.205 3.72297 51.7735 3.51701 53.532 3.27938C54.8628 3.07342 55.7816 2.96252 56.2569 2.96252C56.6847 2.96252 57.0174 3.29522 57.3025 3.94476Z" fill="black"/>
<path d="M59.6316 30.3386C58.0632 29.5623 56.78 28.3741 55.7819 26.7899C54.7838 25.2056 54.2769 23.2411 54.2769 20.9123C54.2769 17.0625 55.3066 14.1316 57.3662 12.1038C59.4257 10.0759 62.2298 9.06201 65.7786 9.06201C67.2203 9.06201 68.5669 9.39471 69.8026 10.0443C71.0383 10.6938 72.0364 11.5651 72.7652 12.6424C73.4939 13.7197 73.8741 14.8604 73.8741 16.0327C73.8741 17.7121 73.2246 19.027 71.9255 19.9617C70.6264 20.8964 68.9946 21.3717 67.0143 21.3717C66.0479 21.3717 65.129 21.2925 64.2418 21.1182C63.3547 20.944 62.6576 20.7855 62.1506 20.6113C62.3883 22.7975 63.0695 24.461 64.1785 25.6017C65.2875 26.7423 66.6499 27.3127 68.25 27.3127C69.6917 27.3127 71.1017 26.774 72.4641 25.7126C72.5909 25.6334 72.7018 25.5858 72.781 25.5858C72.9394 25.5858 73.082 25.6334 73.1771 25.7443C73.288 25.8552 73.3355 25.9977 73.3355 26.1878C73.3355 26.9166 72.9711 27.677 72.2265 28.5167C71.4977 29.3405 70.468 30.0534 69.1372 30.6396C67.8064 31.2258 66.2855 31.5268 64.5428 31.5268C62.8477 31.4951 61.1842 31.1149 59.6316 30.3386ZM65.0815 18.2349C65.9212 17.6487 66.5549 16.8882 66.9826 15.9694C67.4104 15.0505 67.6163 14.1475 67.6163 13.2603C67.6163 12.5632 67.4896 11.9929 67.2202 11.5335C66.9509 11.074 66.5232 10.8522 65.937 10.8522C65.129 10.8522 64.4478 11.2958 63.8775 12.1988C63.3071 13.1019 62.8635 14.195 62.5625 15.4783C62.2615 16.7773 62.1031 17.9655 62.1031 19.0587C63.2438 19.1062 64.2418 18.821 65.0815 18.2349Z" fill="black"/>
<path d="M94.9127 28.9445C95.0395 29.2455 95.2296 29.5623 95.4514 29.8792C95.6732 30.196 95.7841 30.4337 95.7841 30.5604C95.7841 30.6871 95.7366 30.8139 95.6573 30.9248C95.5781 31.0357 95.4672 31.0832 95.3405 31.0832H85.5973C85.4706 31.0832 85.3597 31.0357 85.2804 30.9248C85.2012 30.8139 85.1537 30.703 85.1537 30.5604C85.1537 30.4337 85.2646 30.196 85.4706 29.8792C85.6765 29.5623 85.8666 29.2455 86.0092 28.9603C86.1518 28.6593 86.231 28.3108 86.231 27.883C86.1993 27.9305 85.9617 28.2632 85.4864 28.8494C85.0111 29.4356 84.2982 30.0059 83.3476 30.5287C82.3813 31.0674 81.399 31.3367 80.3851 31.3367C78.5949 31.3367 77.1532 30.8614 76.0759 29.9109C74.9986 28.9603 74.46 27.6137 74.46 25.8868C74.46 23.7006 75.3313 21.942 77.0581 20.6113C78.8008 19.2963 80.7495 18.3141 82.9357 17.7121C85.1062 17.0942 86.1993 16.8566 86.1993 16.9833V13.3078C86.1993 12.2622 86.0251 11.5018 85.6924 11.0265C85.3597 10.5512 84.8052 10.2977 84.0289 10.2977C82.8565 10.2977 82.2704 11.2958 82.2704 13.3078C82.2704 14.5435 81.9377 15.4624 81.2723 16.0961C80.6069 16.7298 79.7989 17.0308 78.8642 17.0308C77.9612 17.0308 77.2007 16.7457 76.6146 16.1753C76.0284 15.605 75.7274 14.8446 75.7274 13.9098C75.7274 12.2305 76.5987 10.9948 78.3256 10.2185C80.0682 9.44223 82.207 9.06201 84.7735 9.06201C87.736 9.06201 90.0966 9.80661 91.871 11.3117C93.6295 12.8009 94.5484 14.8921 94.6434 17.5695V27.883H94.6909C94.7068 28.2949 94.7702 28.6434 94.9127 28.9445ZM86.2152 18.9953C84.7735 19.93 83.6962 20.944 82.9833 22.0371C82.2704 23.1302 81.9218 24.1758 81.9218 25.1581C81.9218 25.8868 82.1119 26.4255 82.4763 26.8057C82.8565 27.1859 83.316 27.3602 83.8863 27.3602C84.3457 27.3602 84.7735 27.2493 85.1854 27.0275C85.5973 26.8057 85.9458 26.4889 86.1993 26.0928V18.9953H86.2152Z" fill="black"/>
<path d="M133.616 29.0394C133.743 29.3405 133.933 29.6573 134.155 29.9742C134.377 30.291 134.488 30.5286 134.488 30.6554C134.488 30.7821 134.44 30.9089 134.361 31.0198C134.282 31.1307 134.171 31.1782 134.044 31.1782H124.301C124.174 31.1782 124.063 31.1307 123.984 31.0198C123.905 30.9089 123.857 30.798 123.857 30.6554C123.857 30.5286 123.968 30.291 124.174 29.9742C124.38 29.6573 124.57 29.3405 124.713 29.0553C124.855 28.7543 124.935 28.4057 124.935 27.978V16.9199C124.935 15.9059 124.634 15.1138 124.032 14.5435C123.43 13.9731 122.717 13.688 121.893 13.688C121.259 13.688 120.641 13.8781 120.055 14.2425C120.261 14.9712 120.372 15.7 120.372 16.4446V27.978C120.372 28.3741 120.435 28.7384 120.578 29.0394C120.705 29.3405 120.895 29.6573 121.117 29.9742C121.338 30.291 121.449 30.5286 121.449 30.6554C121.449 30.7821 121.402 30.9089 121.323 31.0198C121.243 31.1307 121.132 31.1782 121.006 31.1782H111.263C111.136 31.1782 111.025 31.1307 110.946 31.0198C110.866 30.9089 110.819 30.798 110.819 30.6554C110.819 30.5286 110.93 30.291 111.136 29.9742C111.342 29.6573 111.532 29.3405 111.674 29.0553C111.817 28.7543 111.896 28.4057 111.896 27.978V16.9199C111.896 15.9059 111.595 15.1138 110.993 14.5435C110.391 13.9731 109.678 13.688 108.854 13.688C108.268 13.688 107.698 13.8464 107.128 14.1633V27.8829C107.128 28.279 107.191 28.6434 107.334 28.9444C107.46 29.2454 107.65 29.5623 107.872 29.8791C108.094 30.196 108.205 30.4336 108.205 30.5603C108.205 30.6871 108.157 30.8138 108.078 30.9247C107.999 31.0356 107.888 31.0831 107.761 31.0831H98.0181C97.8914 31.0831 97.7805 31.0356 97.7013 30.9247C97.6221 30.8138 97.5746 30.7029 97.5746 30.5603C97.5746 30.4336 97.6855 30.196 97.8914 29.8791C98.0974 29.5623 98.2875 29.2454 98.43 28.9602C98.5726 28.6592 98.6518 28.3107 98.6518 27.8829V14.2266C98.6518 13.688 98.5726 13.3078 98.4142 13.086C98.2558 12.8642 97.9706 12.579 97.5746 12.2305C97.4161 12.1037 97.3369 11.9295 97.3369 11.7552C97.3369 11.6284 97.3844 11.5175 97.4637 11.4383C97.5429 11.3591 97.6538 11.3116 97.7805 11.3116C99.4915 11.3116 100.965 11.1373 102.216 10.8046C103.452 10.4719 104.624 10.0759 105.718 9.61643C106.193 9.42632 106.462 9.33127 106.526 9.33127C106.684 9.33127 106.827 9.37879 106.953 9.47385C107.08 9.56891 107.128 9.69565 107.128 9.85407V11.6918C107.936 10.868 108.823 10.2185 109.837 9.77486C110.835 9.31542 111.88 9.09363 112.989 9.09363C114.273 9.09363 115.493 9.42632 116.633 10.0759C117.774 10.7254 118.693 11.6126 119.358 12.7374C120.134 11.5968 121.101 10.6937 122.289 10.06C123.461 9.42632 124.713 9.09363 126.012 9.09363C127.264 9.09363 128.468 9.41048 129.592 10.06C130.733 10.6937 131.636 11.5809 132.333 12.7057C133.03 13.8306 133.379 15.0663 133.379 16.4287V27.9621C133.426 28.3741 133.49 28.7226 133.616 29.0394Z" fill="black"/>
<path d="M144.997 28.9127C145.123 29.2137 145.314 29.5306 145.535 29.8474C145.757 30.1643 145.868 30.4019 145.868 30.5287C145.868 30.6554 145.82 30.7821 145.741 30.893C145.662 31.0039 145.551 31.0515 145.424 31.0515H135.681C135.554 31.0515 135.444 31.0039 135.364 30.893C135.285 30.7821 135.238 30.6712 135.238 30.5287C135.238 30.4019 135.349 30.1643 135.554 29.8474C135.76 29.5306 135.951 29.2137 136.093 28.9286C136.236 28.6276 136.315 28.279 136.315 27.8513V4.89536C136.315 4.35671 136.236 3.97649 136.077 3.75469C135.919 3.5329 135.634 3.24773 135.238 2.89919C135.079 2.77245 135 2.59818 135 2.42392C135 2.29718 135.048 2.18628 135.127 2.10706C135.206 2.02785 135.317 1.98032 135.444 1.98032C137.155 1.98032 138.628 1.80605 139.88 1.47336C141.115 1.14067 142.288 0.744602 143.381 0.285167C143.856 0.0950555 144.125 0 144.189 0C144.347 0 144.49 0.0475278 144.616 0.142583C144.743 0.237639 144.791 0.364379 144.791 0.522805V27.8513C144.791 28.2473 144.854 28.6117 144.997 28.9127Z" fill="black"/>
<path d="M150.525 38.6083C149.892 37.9113 149.559 37.1033 149.559 36.1686C149.559 35.4715 149.733 34.8695 150.082 34.3625C150.43 33.8556 150.89 33.5546 151.492 33.4437C151.492 33.9981 151.729 34.4576 152.189 34.822C152.648 35.1863 153.25 35.3606 153.979 35.3606C154.882 35.3606 155.769 35.0438 156.641 34.4259C157.512 33.7922 158.177 32.8575 158.669 31.6059C158.669 31.6059 158.526 34.4893 158.367 34.014C157.702 32.6832 154.122 24.9045 151.698 19.5497C149.828 15.3514 148.513 12.5314 147.769 11.0581C147.658 10.8204 147.468 10.567 147.214 10.2976C146.993 10.0917 146.897 9.90157 146.897 9.74315C146.897 9.61641 146.977 9.48967 147.119 9.41045C147.262 9.3154 147.42 9.28371 147.579 9.3154C148.672 9.50551 149.876 9.60056 151.191 9.60056C152.094 9.60056 152.933 9.55304 153.71 9.45798C154.486 9.36293 155.072 9.25203 155.468 9.12529C155.516 9.0936 155.595 9.07776 155.706 9.07776C155.817 9.07776 155.896 9.14113 155.944 9.28371C156.752 11.6601 157.639 14.0048 158.653 16.3337C159.651 18.6625 160.585 20.6745 161.441 22.3855L167.493 9.10944H171.026L159.286 35.0438C158.399 36.6755 157.496 37.8479 156.546 38.5925C155.595 39.3213 154.549 39.7015 153.393 39.7015C152.11 39.6539 151.159 39.3054 150.525 38.6083Z" fill="black"/>
<path d="M14.0048 32.2555C21.7395 32.2555 28.0097 25.9854 28.0097 18.2507C28.0097 10.516 21.7395 4.24585 14.0048 4.24585C6.27018 4.24585 0 10.516 0 18.2507C0 25.9854 6.27018 32.2555 14.0048 32.2555Z" fill="#52A0CC"/>
<path d="M14.0049 30.4495C20.7422 30.4495 26.2037 24.9879 26.2037 18.2507C26.2037 11.5135 20.7422 6.05188 14.0049 6.05188C7.26774 6.05188 1.80615 11.5135 1.80615 18.2507C1.80615 24.9879 7.26774 30.4495 14.0049 30.4495Z" fill="#52CEAA"/>
<path d="M13.9097 27.6453C10.3768 27.6453 7.50928 24.7778 7.50928 21.2449V19.8032H20.2942V21.2607C20.2942 24.7936 17.4426 27.6453 13.9097 27.6453Z" fill="#EA0F0F"/>
<path d="M19.629 9.86987L20.4053 12.2463H22.9084L20.8806 13.7196L21.6569 16.1119L19.629 14.6385L17.6012 16.1119L18.3775 13.7196L16.3496 12.2463H18.8527L19.629 9.86987Z" fill="#EA0F0F"/>
<path d="M8.77697 9.86987L9.55326 12.2463H12.0564L10.0285 13.7196L10.8048 16.1119L8.77697 14.6385L6.74912 16.1119L7.52541 13.7196L5.49756 12.2463H8.00069L8.77697 9.86987Z" fill="#EA0F0F"/>
</svg>
