<svg width="63" height="51" viewBox="0 0 63 51" fill="none" xmlns="http://www.w3.org/2000/svg">
<path d="M62.96 0.295992V13.4H58.496C55.904 13.4 53.792 13.784 52.16 14.552C50.624 15.32 49.472 16.712 48.704 18.728C47.936 20.648 47.552 23.336 47.552 26.792V37.304L43.232 28.376C43.904 27.8 44.864 27.368 46.112 27.08C47.36 26.696 48.752 26.504 50.288 26.504C53.648 26.504 56.48 27.56 58.784 29.672C61.088 31.688 62.24 34.568 62.24 38.312C62.24 41.864 61.136 44.888 58.928 47.384C56.72 49.784 53.552 50.984 49.424 50.984C46.736 50.984 44.24 50.36 41.936 49.112C39.728 47.864 37.904 45.752 36.464 42.776C35.12 39.8 34.448 35.768 34.448 30.68V28.52C34.448 21.704 35.408 16.232 37.328 12.104C39.344 7.976 42.224 5 45.968 3.176C49.712 1.25599 54.32 0.295992 59.792 0.295992H62.96ZM29.12 0.295992V13.4H24.656C22.064 13.4 19.952 13.784 18.32 14.552C16.784 15.32 15.632 16.712 14.864 18.728C14.096 20.648 13.712 23.336 13.712 26.792V37.304L9.392 28.376C10.064 27.8 11.024 27.368 12.272 27.08C13.52 26.696 14.912 26.504 16.448 26.504C19.808 26.504 22.64 27.56 24.944 29.672C27.248 31.688 28.4 34.568 28.4 38.312C28.4 41.864 27.296 44.888 25.088 47.384C22.88 49.784 19.712 50.984 15.584 50.984C12.896 50.984 10.4 50.36 8.096 49.112C5.888 47.864 4.064 45.752 2.624 42.776C1.28 39.8 0.608 35.768 0.608 30.68V28.52C0.608 21.704 1.568 16.232 3.488 12.104C5.504 7.976 8.384 5 12.128 3.176C15.872 1.25599 20.48 0.295992 25.952 0.295992H29.12Z" fill="#54CC9E"/>
</svg>
